<svg width="31" height="31" viewBox="0 0 31 31" fill="none" xmlns="http://www.w3.org/2000/svg">
<path d="M6.45833 25.8333C6.45833 26.5185 6.7305 27.1756 7.21497 27.66C7.69944 28.1445 8.35652 28.4167 9.04167 28.4167H21.9583C22.6435 28.4167 23.3006 28.1445 23.785 27.66C24.2695 27.1756 24.5417 26.5185 24.5417 25.8333V10.3333H27.125V7.75H21.9583V5.16667C21.9583 4.48152 21.6862 3.82444 21.2017 3.33997C20.7172 2.8555 20.0601 2.58333 19.375 2.58333H11.625C10.9399 2.58333 10.2828 2.8555 9.79831 3.33997C9.31384 3.82444 9.04167 4.48152 9.04167 5.16667V7.75H3.875V10.3333H6.45833V25.8333ZM11.625 5.16667H19.375V7.75H11.625V5.16667ZM10.3333 10.3333H21.9583V25.8333H9.04167V10.3333H10.3333Z" fill="#F3726C"/>
<path d="M11.625 12.9167H14.2083V23.25H11.625V12.9167ZM16.7917 12.9167H19.375V23.25H16.7917V12.9167Z" fill="#F3726C"/>
</svg>
